<svg width="17" height="16" viewBox="0 0 17 16" fill="none" xmlns="http://www.w3.org/2000/svg">
<path opacity="0.4" d="M8.49992 14.6667C12.1818 14.6667 15.1666 11.6819 15.1666 8.00001C15.1666 4.31811 12.1818 1.33334 8.49992 1.33334C4.81802 1.33334 1.83325 4.31811 1.83325 8.00001C1.83325 11.6819 4.81802 14.6667 8.49992 14.6667Z" fill="white"/>
<path d="M9.20666 7.99999L10.74 6.46666C10.9333 6.27332 10.9333 5.95332 10.74 5.75999C10.5467 5.56666 10.2267 5.56666 10.0333 5.75999L8.49999 7.29332L6.96666 5.75999C6.77332 5.56666 6.45332 5.56666 6.25999 5.75999C6.06666 5.95332 6.06666 6.27332 6.25999 6.46666L7.79332 7.99999L6.25999 9.53332C6.06666 9.72666 6.06666 10.0467 6.25999 10.24C6.35999 10.34 6.48666 10.3867 6.61332 10.3867C6.73999 10.3867 6.86666 10.34 6.96666 10.24L8.49999 8.70666L10.0333 10.24C10.1333 10.34 10.26 10.3867 10.3867 10.3867C10.5133 10.3867 10.64 10.34 10.74 10.24C10.9333 10.0467 10.9333 9.72666 10.74 9.53332L9.20666 7.99999Z" fill="white"/>
</svg>
