<svg width="17" height="16" viewBox="0 0 17 16" fill="none" xmlns="http://www.w3.org/2000/svg">
<path d="M14.2866 9.27334V9.26666C13.6999 8.64666 12.8799 8.26666 11.9666 8.26666C10.1999 8.26666 8.7666 9.70001 8.7666 11.4667C8.7666 12.2867 9.07992 13.0333 9.58659 13.6C10.1733 14.2533 11.0199 14.6667 11.9666 14.6667C13.7333 14.6667 15.1666 13.2333 15.1666 11.4667C15.1666 10.62 14.8332 9.84667 14.2866 9.27334ZM13.1599 12.0067H12.4666V12.7333C12.4666 13.0067 12.2399 13.2333 11.9666 13.2333C11.6933 13.2333 11.4666 13.0067 11.4666 12.7333V12.0067H10.7732C10.4932 12.0067 10.2732 11.7867 10.2732 11.5067C10.2732 11.2333 10.4866 11.0133 10.7666 11.0067H11.4666V10.34C11.4666 10.3267 11.4666 10.3133 11.4733 10.3C11.4866 10.0467 11.7066 9.84001 11.9666 9.84001C12.2333 9.84001 12.4533 10.0533 12.4666 10.32V11.0067H13.1599C13.4399 11.0067 13.6599 11.2333 13.6599 11.5067C13.6599 11.7867 13.4399 12.0067 13.1599 12.0067Z" fill="white"/>
<path opacity="0.4" d="M15.1666 5.79335C15.1666 6.58668 15.0399 7.32001 14.8199 8.00001C14.6799 8.44668 14.4999 8.87334 14.2866 9.26667C13.6999 8.64667 12.8799 8.26667 11.9666 8.26667C10.1999 8.26667 8.7666 9.70002 8.7666 11.4667C8.7666 12.2867 9.07992 13.0333 9.58659 13.6C9.33992 13.7133 9.11325 13.8067 8.91325 13.8733C8.68658 13.9533 8.31326 13.9533 8.08659 13.8733C6.47992 13.3267 3.23327 11.3333 2.17993 8.00001C1.95993 7.32001 1.83325 6.58668 1.83325 5.79335C1.83325 3.73335 3.49325 2.06668 5.53992 2.06668C6.74658 2.06668 7.82659 2.65333 8.49992 3.55333C9.17325 2.65333 10.2533 2.06668 11.4599 2.06668C13.5066 2.06668 15.1666 3.73335 15.1666 5.79335Z" fill="white"/>
</svg>
