<svg width="17" height="16" viewBox="0 0 17 16" fill="none" xmlns="http://www.w3.org/2000/svg">
<path opacity="0.4" d="M11.2933 1.33334L5.70659 1.33334C3.27992 1.33334 1.83325 2.78001 1.83325 5.20668L1.83325 10.7867C1.83325 13.22 3.27992 14.6667 5.70659 14.6667H11.2866C13.7133 14.6667 15.1599 13.22 15.1599 10.7933V5.20668C15.1666 2.78001 13.7199 1.33334 11.2933 1.33334Z" fill="white"/>
<path d="M10.8867 12.8333C10.6134 12.8333 10.3867 12.6067 10.3867 12.3333V9.73334C10.3867 9.46 10.6134 9.23334 10.8867 9.23334C11.1601 9.23334 11.3867 9.46 11.3867 9.73334V12.3333C11.3867 12.6067 11.1601 12.8333 10.8867 12.8333Z" fill="white"/>
<path d="M10.8867 5.46666C10.6134 5.46666 10.3867 5.23999 10.3867 4.96666V3.66666C10.3867 3.39332 10.6134 3.16666 10.8867 3.16666C11.1601 3.16666 11.3867 3.39332 11.3867 3.66666V4.96666C11.3867 5.23999 11.1601 5.46666 10.8867 5.46666Z" fill="white"/>
<path d="M6.11328 12.8333C5.83995 12.8333 5.61328 12.6067 5.61328 12.3333V11.0333C5.61328 10.76 5.83995 10.5333 6.11328 10.5333C6.38661 10.5333 6.61328 10.76 6.61328 11.0333V12.3333C6.61328 12.6067 6.39328 12.8333 6.11328 12.8333Z" fill="white"/>
<path d="M6.11328 6.76666C5.83995 6.76666 5.61328 6.53999 5.61328 6.26666V3.66666C5.61328 3.39332 5.83995 3.16666 6.11328 3.16666C6.38661 3.16666 6.61328 3.39332 6.61328 3.66666V6.26666C6.61328 6.53999 6.39328 6.76666 6.11328 6.76666Z" fill="white"/>
<path d="M10.8867 4.88666C9.88665 4.88666 9.06665 5.69999 9.06665 6.69999C9.06665 7.69999 9.87998 8.51999 10.8867 8.51999C11.8867 8.51999 12.7 7.70666 12.7 6.69999C12.7 5.69332 11.8867 4.88666 10.8867 4.88666Z" fill="white"/>
<path d="M6.11338 7.48666C5.11338 7.48666 4.30005 8.3 4.30005 9.30666C4.30005 10.3133 5.11338 11.12 6.11338 11.12C7.11338 11.12 7.93338 10.3067 7.93338 9.30666C7.93338 8.30666 7.12005 7.48666 6.11338 7.48666Z" fill="white"/>
</svg>
