<svg width="16" height="16" viewBox="0 0 16 16" fill="none" xmlns="http://www.w3.org/2000/svg">
<path d="M4 3.00016C4 3.36835 3.70152 3.66683 3.33333 3.66683C2.96514 3.66683 2.66667 3.36835 2.66667 3.00016C2.66667 2.63197 2.96514 2.3335 3.33333 2.3335C3.70152 2.3335 4 2.63197 4 3.00016Z" fill="#9760D1"/>
<path fill-rule="evenodd" clip-rule="evenodd" d="M7.99968 9.80465C7.38716 10.8208 6.27294 11.5003 5 11.5003C3.067 11.5003 1.5 9.93333 1.5 8.00033C1.5 6.06733 3.067 4.50033 5 4.50033C6.27294 4.50033 7.38716 5.17988 7.99968 6.196C8.6122 5.17988 9.72642 4.50033 10.9994 4.50033C12.9324 4.50033 14.4994 6.06733 14.4994 8.00033C14.4994 9.93333 12.9324 11.5003 10.9994 11.5003C9.72642 11.5003 8.6122 10.8208 7.99968 9.80465ZM2.5 8.00033C2.5 6.61962 3.61929 5.50033 5 5.50033C6.36611 5.50033 7.47629 6.59606 7.49963 7.95661C7.49945 7.97116 7.49936 7.98573 7.49936 8.00033C7.49936 8.01492 7.49945 8.0295 7.49963 8.04405C7.47629 9.40459 6.36611 10.5003 5 10.5003C3.61929 10.5003 2.5 9.38104 2.5 8.00033ZM8.49973 8.04405C8.52306 9.40459 9.63325 10.5003 10.9994 10.5003C12.3801 10.5003 13.4994 9.38104 13.4994 8.00033C13.4994 6.61962 12.3801 5.50033 10.9994 5.50033C9.63325 5.50033 8.52306 6.59606 8.49973 7.95661C8.49991 7.97116 8.5 7.98573 8.5 8.00033C8.5 8.01492 8.49991 8.0295 8.49973 8.04405Z" fill="#9760D1"/>
<path d="M3.33333 13.667C3.70152 13.667 4 13.3685 4 13.0003C4 12.6321 3.70152 12.3337 3.33333 12.3337C2.96514 12.3337 2.66667 12.6321 2.66667 13.0003C2.66667 13.3685 2.96514 13.667 3.33333 13.667Z" fill="#9760D1"/>
<path d="M8.66667 3.00016C8.66667 3.36835 8.3682 3.66683 8.00001 3.66683C7.63182 3.66683 7.33334 3.36835 7.33334 3.00016C7.33334 2.63197 7.63182 2.3335 8.00001 2.3335C8.3682 2.3335 8.66667 2.63197 8.66667 3.00016Z" fill="#9760D1"/>
<path d="M8.00001 13.667C8.3682 13.667 8.66667 13.3685 8.66667 13.0003C8.66667 12.6321 8.3682 12.3337 8.00001 12.3337C7.63182 12.3337 7.33334 12.6321 7.33334 13.0003C7.33334 13.3685 7.63182 13.667 8.00001 13.667Z" fill="#9760D1"/>
<path d="M13.3333 3.00016C13.3333 3.36835 13.0349 3.66683 12.6667 3.66683C12.2985 3.66683 12 3.36835 12 3.00016C12 2.63197 12.2985 2.3335 12.6667 2.3335C13.0349 2.3335 13.3333 2.63197 13.3333 3.00016Z" fill="#9760D1"/>
<path d="M12.6667 13.667C13.0349 13.667 13.3333 13.3685 13.3333 13.0003C13.3333 12.6321 13.0349 12.3337 12.6667 12.3337C12.2985 12.3337 12 12.6321 12 13.0003C12 13.3685 12.2985 13.667 12.6667 13.667Z" fill="#9760D1"/>
</svg>
