<svg width="17" height="16" viewBox="0 0 17 16" fill="none" xmlns="http://www.w3.org/2000/svg">
<path d="M7.07265 3.28018C6.81511 3.17377 6.53301 3.1412 6.25799 3.18613C5.98297 3.23106 5.7259 3.35171 5.51561 3.53456C5.30532 3.71741 5.15012 3.95522 5.06742 4.22133C4.98547 4.48503 4.70526 4.63237 4.44156 4.55041C4.17786 4.46846 4.03052 4.18825 4.11248 3.92455C4.25031 3.48103 4.50898 3.08468 4.85946 2.77993C5.20994 2.47519 5.63839 2.2741 6.09675 2.19921C6.55512 2.12433 7.02528 2.17861 7.45453 2.35597C7.88377 2.53333 8.25513 2.82676 8.52695 3.20335C8.79877 3.57994 8.96031 4.02481 8.99346 4.48806C9.02661 4.95132 8.93006 5.41466 8.71463 5.82612C8.4992 6.23757 8.17341 6.58089 7.7738 6.81756C7.47499 6.99453 7.14373 7.10664 6.80148 7.14824C6.75855 7.16025 6.71327 7.16667 6.6665 7.16667H3.1665C2.89036 7.16667 2.6665 6.94282 2.6665 6.66667C2.6665 6.39053 2.89036 6.16667 3.1665 6.16667H6.43826C6.44917 6.16617 6.46016 6.16602 6.47124 6.16623C6.74986 6.17155 7.02444 6.09914 7.26421 5.95714C7.50398 5.81513 7.69946 5.60915 7.82871 5.36227C7.95797 5.1154 8.0159 4.8374 7.99601 4.55944C7.97612 4.28149 7.8792 4.01457 7.7161 3.78861C7.55301 3.56266 7.3302 3.3866 7.07265 3.28018Z" fill="#9760D1"/>
<path d="M3.1665 8.50001C2.89036 8.50001 2.6665 8.72387 2.6665 9.00001C2.6665 9.27615 2.89036 9.50001 3.1665 9.50001H11.8332C12.1118 9.50001 12.385 9.57764 12.622 9.72419C12.859 9.87074 13.0506 10.0804 13.1751 10.3297C13.2996 10.579 13.3522 10.8581 13.327 11.1356C13.3019 11.4131 13.1999 11.6781 13.0325 11.9009C12.8651 12.1237 12.639 12.2955 12.3795 12.397C12.1199 12.4985 11.8373 12.5257 11.5631 12.4755C11.289 12.4253 11.0343 12.2998 10.8275 12.113C10.6208 11.9262 10.4701 11.6854 10.3925 11.4178C10.3156 11.1526 10.0383 10.9999 9.77306 11.0768C9.50784 11.1537 9.35519 11.4311 9.4321 11.6963C9.56146 12.1424 9.81252 12.5436 10.1571 12.855C10.5017 13.1663 10.9263 13.3756 11.3831 13.4592C11.84 13.5428 12.3111 13.4975 12.7436 13.3283C13.1762 13.1592 13.5531 12.8729 13.832 12.5016C14.111 12.1302 14.281 11.6885 14.3229 11.226C14.3649 10.7634 14.2772 10.2983 14.0697 9.88284C13.8621 9.46735 13.5429 9.11789 13.1479 8.87364C12.8386 8.6824 12.4924 8.56158 12.1337 8.51814C12.0911 8.50633 12.0462 8.50001 11.9998 8.50001H3.1665Z" fill="#9760D1"/>
<path d="M11.1665 3.33317C11.1665 3.70136 10.868 3.99984 10.4998 3.99984C10.1317 3.99984 9.83318 3.70136 9.83318 3.33317C9.83318 2.96498 10.1317 2.6665 10.4998 2.6665C10.868 2.6665 11.1665 2.96498 11.1665 3.33317Z" fill="#9760D1"/>
<path d="M10.4998 6.66651C10.868 6.66651 11.1665 6.36803 11.1665 5.99984C11.1665 5.63165 10.868 5.33318 10.4998 5.33318C10.1317 5.33318 9.83318 5.63165 9.83318 5.99984C9.83318 6.36803 10.1317 6.66651 10.4998 6.66651Z" fill="#9760D1"/>
<path d="M12.4998 4.66667C12.4998 5.03486 12.2014 5.33334 11.8332 5.33334C11.465 5.33334 11.1665 5.03486 11.1665 4.66667C11.1665 4.29848 11.465 4 11.8332 4C12.2014 4 12.4998 4.29848 12.4998 4.66667Z" fill="#9760D1"/>
<path d="M13.1659 3.99984C13.5341 3.99984 13.8325 3.70136 13.8325 3.33317C13.8325 2.96498 13.5341 2.6665 13.1659 2.6665C12.7977 2.6665 12.4992 2.96498 12.4992 3.33317C12.4992 3.70136 12.7977 3.99984 13.1659 3.99984Z" fill="#9760D1"/>
<path d="M13.8325 5.99984C13.8325 6.36803 13.5341 6.66651 13.1659 6.66651C12.7977 6.66651 12.4992 6.36803 12.4992 5.99984C12.4992 5.63165 12.7977 5.33318 13.1659 5.33318C13.5341 5.33318 13.8325 5.63165 13.8325 5.99984Z" fill="#9760D1"/>
<path d="M3.1665 10.5C2.89036 10.5 2.6665 10.7239 2.6665 11C2.6665 11.2762 2.89036 11.5 3.1665 11.5H4.99984C5.27598 11.5 5.49984 11.2762 5.49984 11C5.49984 10.7239 5.27598 10.5 4.99984 10.5H3.1665Z" fill="#9760D1"/>
</svg>
