<svg width="16" height="16" viewBox="0 0 16 16" fill="none" xmlns="http://www.w3.org/2000/svg">
<path fill-rule="evenodd" clip-rule="evenodd" d="M8.36463 1.77829C8.45014 1.95065 8.42915 2.15679 8.31067 2.30839C7.8023 2.95883 7.49962 3.77673 7.49962 4.66672C7.49962 6.78381 9.21586 8.50005 11.333 8.50005C12.223 8.50005 13.041 8.1973 13.6915 7.68883C13.8431 7.57033 14.0492 7.54933 14.2216 7.63482C14.394 7.72032 14.502 7.89713 14.4994 8.08952C14.4514 11.6382 11.5599 14.4999 8 14.4999C4.41015 14.4999 1.5 11.5898 1.5 7.99992C1.5 4.44015 4.36151 1.54881 7.90992 1.50053C8.1023 1.49792 8.27913 1.60593 8.36463 1.77829ZM6.96391 2.59735C4.42173 3.08193 2.5 5.31654 2.5 7.99992C2.5 11.0375 4.96243 13.4999 8 13.4999C10.6835 13.4999 12.9182 11.578 13.4026 9.03561C12.7751 9.33338 12.0732 9.50005 11.333 9.50005C8.66358 9.50005 6.49962 7.33609 6.49962 4.66672C6.49962 3.92661 6.66624 3.22481 6.96391 2.59735Z" fill="#9760D1"/>
</svg>
