<svg width="16" height="16" viewBox="0 0 16 16" fill="none" xmlns="http://www.w3.org/2000/svg">
<path fill-rule="evenodd" clip-rule="evenodd" d="M4.5 11.6737C2.45876 10.9082 1 8.88073 1 6.5C1 3.46243 3.37475 1 6.30414 1C8.73448 1 10.783 2.69488 11.4105 5.00693C11.4813 5.00234 11.5527 5 11.6246 5C13.4888 5 15 6.567 15 8.49999C15 10.3014 13.6875 11.785 12 11.9786V10.9685C13.1102 10.7808 14 9.77432 14 8.49999C14 7.0848 12.9027 6 11.6246 6C11.2636 6 10.917 6.08659 10.6054 6.24274C10.5895 5.95183 10.5469 5.66837 10.4799 5.39496L10.4784 5.39557C10.0046 3.42502 8.29193 2 6.30414 2C3.9609 2 2 3.98023 2 6.5C2 8.33078 3.03515 9.87673 4.5 10.5853V11.6737ZM7 9L6.62824 9.26022L6.70711 9.70711L6.26022 9.62824L6 10L5.73978 9.62824L5.29289 9.70711L5.37176 9.26022L5 9L5.37176 8.73978L5.29289 8.29289L5.73978 8.37176L6 8L6.26022 8.37176L6.70711 8.29289L6.62824 8.73978L7 9ZM8.62824 10.7602L9 10.5L8.62824 10.2398L8.70711 9.79289L8.26022 9.87176L8 9.5L7.73978 9.87176L7.29289 9.79289L7.37176 10.2398L7 10.5L7.37176 10.7602L7.29289 11.2071L7.73978 11.1282L8 11.5L8.26022 11.1282L8.70711 11.2071L8.62824 10.7602ZM9 7.5L8.62824 7.76022L8.70711 8.20711L8.26022 8.12824L8 8.5L7.73978 8.12824L7.29289 8.20711L7.37176 7.76022L7 7.5L7.37176 7.23978L7.29289 6.79289L7.73978 6.87176L8 6.5L8.26022 6.87176L8.70711 6.79289L8.62824 7.23978L9 7.5ZM10.6282 9.26022L11 9L10.6282 8.73978L10.7071 8.29289L10.2602 8.37176L10 8L9.73978 8.37176L9.29289 8.29289L9.37176 8.73978L9 9L9.37176 9.26022L9.29289 9.70711L9.73978 9.62824L10 10L10.2602 9.62824L10.7071 9.70711L10.6282 9.26022ZM6.25103 14.0011C6.37211 14.0011 6.50111 13.896 6.50106 13.728C6.50103 13.636 6.46945 13.4631 6.37177 13.2084C6.33282 13.1068 6.28731 13.0023 6.23719 12.8969C6.08764 13.2218 6.00077 13.5138 6.00084 13.728C6.00089 13.896 6.12996 14.0011 6.25103 14.0011ZM5.64616 11.8786C5.95143 11.3651 6.25011 11 6.25011 11C6.25011 11 6.53493 11.3777 6.83275 11.8889C7.15901 12.4488 7.50089 13.1689 7.50106 13.728C7.50127 14.4311 6.94176 15.0011 6.25134 15.0011C5.56092 15.0011 5.00105 14.4311 5.00084 13.728C5.00065 13.1145 5.32701 12.4155 5.64616 11.8786ZM10.0011 13.728C10.0011 13.896 9.87211 14.0011 9.75103 14.0011C9.62996 14.0011 9.50089 13.896 9.50084 13.728C9.50077 13.5138 9.58764 13.2218 9.73719 12.8969C9.78731 13.0023 9.83282 13.1068 9.87177 13.2084C9.96945 13.4631 10.001 13.636 10.0011 13.728ZM9.75011 11C9.75011 11 9.45143 11.3651 9.14616 11.8786C8.82701 12.4155 8.50065 13.1145 8.50084 13.728C8.50105 14.4311 9.06092 15.0011 9.75134 15.0011C10.4418 15.0011 11.0013 14.4311 11.0011 13.728C11.0009 13.1689 10.659 12.4488 10.3328 11.8889C10.0349 11.3777 9.75011 11 9.75011 11Z" fill="#9760D1"/>
</svg>
