<svg width="16" height="16" viewBox="0 0 16 16" fill="none" xmlns="http://www.w3.org/2000/svg">
<path fill-rule="evenodd" clip-rule="evenodd" d="M5.63929 1.49119C5.77553 1.73139 5.69126 2.03655 5.45107 2.17279C4.43919 2.74674 3.65063 3.64538 3.21301 4.72324C2.77539 5.80111 2.71434 6.99512 3.03972 8.112C3.20361 8.67452 3.46068 9.20089 3.79663 9.67096C3.60479 9.15025 3.50004 8.58741 3.50004 8.00011C3.50004 5.33073 5.664 3.16677 8.33337 3.16677C9.21606 3.16677 10.0435 3.40339 10.7557 3.81665C11.7134 4.295 12.5305 5.01469 13.1262 5.90534C13.7371 6.81883 14.0928 7.87898 14.1565 8.97608C14.2202 10.0732 13.9895 11.1674 13.4884 12.1454C12.9873 13.1234 12.2339 13.9498 11.3062 14.539C11.0731 14.687 10.7642 14.6181 10.6161 14.385C10.4681 14.1519 10.537 13.8429 10.7701 13.6948C11.5474 13.2012 12.1786 12.5089 12.5984 11.6894C13.0183 10.87 13.2115 9.95322 13.1581 9.03403C13.1508 8.90779 13.1389 8.78214 13.1224 8.65731C12.8018 11.0158 10.7798 12.8334 8.33337 12.8334C8.28115 12.8334 8.22911 12.8326 8.17729 12.831C6.83772 12.8695 5.5206 12.4705 4.42643 11.6924C3.29489 10.8877 2.46801 9.72477 2.07964 8.39171C1.69127 7.05866 1.76414 5.63355 2.28646 4.34706C2.80878 3.06058 3.74997 1.98801 4.95769 1.30297C5.19788 1.16673 5.50305 1.251 5.63929 1.49119ZM8.37369 11.8332C10.4722 11.8116 12.1667 10.1037 12.1667 8.00011C12.1667 6.59304 11.4086 5.36304 10.2786 4.69627C10.268 4.69109 10.2575 4.68595 10.2469 4.68084C10.2188 4.66727 10.1925 4.65142 10.1682 4.63361C9.62327 4.33596 8.99808 4.16677 8.33337 4.16677C6.21628 4.16677 4.50004 5.88301 4.50004 8.00011C4.50004 10.0656 6.13367 11.7496 8.17937 11.8304C8.20744 11.8294 8.23553 11.8282 8.26363 11.8268C8.30123 11.8249 8.33807 11.8272 8.37369 11.8332Z" fill="#9760D1"/>
</svg>
