<svg width="25" height="24" viewBox="0 0 25 24" fill="none" xmlns="http://www.w3.org/2000/svg">
<path d="M12.5 13.75C12.09 13.75 11.75 13.41 11.75 13V8C11.75 7.59 12.09 7.25 12.5 7.25C12.91 7.25 13.25 7.59 13.25 8V13C13.25 13.41 12.91 13.75 12.5 13.75Z" fill="white"/>
<path d="M12.5 13.75C12.09 13.75 11.75 13.41 11.75 13V8C11.75 7.59 12.09 7.25 12.5 7.25C12.91 7.25 13.25 7.59 13.25 8V13C13.25 13.41 12.91 13.75 12.5 13.75Z" fill="url(#paint0_linear_4047_85988)"/>
<path d="M15.3901 3.45H9.61014C9.21014 3.45 8.89014 3.13 8.89014 2.73C8.89014 2.33 9.21014 2 9.61014 2H15.3901C15.7901 2 16.1101 2.32 16.1101 2.72C16.1101 3.12 15.7901 3.45 15.3901 3.45Z" fill="white"/>
<path d="M15.3901 3.45H9.61014C9.21014 3.45 8.89014 3.13 8.89014 2.73C8.89014 2.33 9.21014 2 9.61014 2H15.3901C15.7901 2 16.1101 2.32 16.1101 2.72C16.1101 3.12 15.7901 3.45 15.3901 3.45Z" fill="url(#paint1_linear_4047_85988)"/>
<g opacity="0.4">
<path d="M15.5001 19.9699V17.0299C15.5001 15.7599 16.2601 14.9999 17.5301 14.9999H20.4701C20.6601 14.9999 20.8301 15.0199 21.0001 15.0599C21.1101 14.4999 21.1701 13.9199 21.1701 13.3299C21.1701 8.54991 17.2801 4.65991 12.5001 4.65991C7.72008 4.65991 3.83008 8.54991 3.83008 13.3299C3.83008 18.1099 7.72008 21.9999 12.5001 21.9999C13.7101 21.9999 14.8601 21.7499 15.9101 21.2999C15.6501 20.9599 15.5001 20.5199 15.5001 19.9699Z" fill="white"/>
<path d="M15.5001 19.9699V17.0299C15.5001 15.7599 16.2601 14.9999 17.5301 14.9999H20.4701C20.6601 14.9999 20.8301 15.0199 21.0001 15.0599C21.1101 14.4999 21.1701 13.9199 21.1701 13.3299C21.1701 8.54991 17.2801 4.65991 12.5001 4.65991C7.72008 4.65991 3.83008 8.54991 3.83008 13.3299C3.83008 18.1099 7.72008 21.9999 12.5001 21.9999C13.7101 21.9999 14.8601 21.7499 15.9101 21.2999C15.6501 20.9599 15.5001 20.5199 15.5001 19.9699Z" fill="url(#paint2_linear_4047_85988)"/>
</g>
<path d="M20.47 15H17.53C16.26 15 15.5 15.76 15.5 17.03V19.97C15.5 21.24 16.26 22 17.53 22H20.47C21.74 22 22.5 21.24 22.5 19.97V17.03C22.5 15.76 21.74 15 20.47 15ZM20.19 19.46L19.01 20.14C18.77 20.28 18.53 20.35 18.31 20.35C18.14 20.35 17.99 20.31 17.85 20.23C17.53 20.04 17.35 19.67 17.35 19.18V17.82C17.35 17.33 17.53 16.96 17.85 16.77C18.17 16.58 18.58 16.62 19.01 16.86L20.19 17.54C20.61 17.79 20.85 18.13 20.85 18.5C20.85 18.87 20.62 19.21 20.19 19.46Z" fill="white"/>
<path d="M20.47 15H17.53C16.26 15 15.5 15.76 15.5 17.03V19.97C15.5 21.24 16.26 22 17.53 22H20.47C21.74 22 22.5 21.24 22.5 19.97V17.03C22.5 15.76 21.74 15 20.47 15ZM20.19 19.46L19.01 20.14C18.77 20.28 18.53 20.35 18.31 20.35C18.14 20.35 17.99 20.31 17.85 20.23C17.53 20.04 17.35 19.67 17.35 19.18V17.82C17.35 17.33 17.53 16.96 17.85 16.77C18.17 16.58 18.58 16.62 19.01 16.86L20.19 17.54C20.61 17.79 20.85 18.13 20.85 18.5C20.85 18.87 20.62 19.21 20.19 19.46Z" fill="url(#paint3_linear_4047_85988)"/>
<defs>
<linearGradient id="paint0_linear_4047_85988" x1="11.8984" y1="6.97917" x2="14.7034" y2="7.6701" gradientUnits="userSpaceOnUse">
<stop stop-color="#F8AA4F"/>
<stop offset="1" stop-color="#ED6438"/>
</linearGradient>
<linearGradient id="paint1_linear_4047_85988" x1="9.60463" y1="1.93958" x2="10.0942" y2="4.54174" gradientUnits="userSpaceOnUse">
<stop stop-color="#F8AA4F"/>
<stop offset="1" stop-color="#ED6438"/>
</linearGradient>
<linearGradient id="paint2_linear_4047_85988" x1="5.54604" y1="3.93741" x2="21.6216" y2="21.097" gradientUnits="userSpaceOnUse">
<stop stop-color="#F8AA4F"/>
<stop offset="1" stop-color="#ED6438"/>
</linearGradient>
<linearGradient id="paint3_linear_4047_85988" x1="16.1927" y1="14.7083" x2="22.6823" y2="21.6355" gradientUnits="userSpaceOnUse">
<stop stop-color="#F8AA4F"/>
<stop offset="1" stop-color="#ED6438"/>
</linearGradient>
</defs>
</svg>
