<svg width="25" height="24" viewBox="0 0 25 24" fill="none" xmlns="http://www.w3.org/2000/svg">
<path opacity="0.4" d="M16.69 2H8.31C4.67 2 2.5 4.17 2.5 7.81V16.18C2.5 19.83 4.67 22 8.31 22H16.68C20.32 22 22.49 19.83 22.49 16.19V7.81C22.5 4.17 20.33 2 16.69 2Z" fill="url(#paint0_linear_5808_81819)"/>
<path d="M16.08 19.25C15.67 19.25 15.33 18.91 15.33 18.5V14.6C15.33 14.19 15.67 13.85 16.08 13.85C16.49 13.85 16.83 14.19 16.83 14.6V18.5C16.83 18.91 16.49 19.25 16.08 19.25Z" fill="#F86FD7"/>
<path d="M16.08 8.2C15.67 8.2 15.33 7.86 15.33 7.45V5.5C15.33 5.09 15.67 4.75 16.08 4.75C16.49 4.75 16.83 5.09 16.83 5.5V7.45C16.83 7.86 16.49 8.2 16.08 8.2Z" fill="white"/>
<path d="M16.08 8.2C15.67 8.2 15.33 7.86 15.33 7.45V5.5C15.33 5.09 15.67 4.75 16.08 4.75C16.49 4.75 16.83 5.09 16.83 5.5V7.45C16.83 7.86 16.49 8.2 16.08 8.2Z" fill="#F86FD7"/>
<path d="M8.92 19.25C8.51 19.25 8.17 18.91 8.17 18.5V16.55C8.17 16.14 8.51 15.8 8.92 15.8C9.33 15.8 9.67 16.14 9.67 16.55V18.5C9.67 18.91 9.34 19.25 8.92 19.25Z" fill="white"/>
<path d="M8.92 19.25C8.51 19.25 8.17 18.91 8.17 18.5V16.55C8.17 16.14 8.51 15.8 8.92 15.8C9.33 15.8 9.67 16.14 9.67 16.55V18.5C9.67 18.91 9.34 19.25 8.92 19.25Z" fill="#F86FD7"/>
<path d="M8.92 10.15C8.51 10.15 8.17 9.81 8.17 9.4V5.5C8.17 5.09 8.51 4.75 8.92 4.75C9.33 4.75 9.67 5.09 9.67 5.5V9.4C9.67 9.81 9.34 10.15 8.92 10.15Z" fill="white"/>
<path d="M8.92 10.15C8.51 10.15 8.17 9.81 8.17 9.4V5.5C8.17 5.09 8.51 4.75 8.92 4.75C9.33 4.75 9.67 5.09 9.67 5.5V9.4C9.67 9.81 9.34 10.15 8.92 10.15Z" fill="#F86FD7"/>
<path d="M16.08 7.32996C14.58 7.32996 13.35 8.54996 13.35 10.05C13.35 11.55 14.57 12.78 16.08 12.78C17.58 12.78 18.8 11.56 18.8 10.05C18.8 8.53996 17.58 7.32996 16.08 7.32996Z" fill="url(#paint1_linear_5808_81819)"/>
<path d="M8.92 11.23C7.42 11.23 6.2 12.45 6.2 13.96C6.2 15.47 7.42 16.68 8.92 16.68C10.42 16.68 11.65 15.46 11.65 13.96C11.65 12.46 10.43 11.23 8.92 11.23Z" fill="white"/>
<path d="M8.92 11.23C7.42 11.23 6.2 12.45 6.2 13.96C6.2 15.47 7.42 16.68 8.92 16.68C10.42 16.68 11.65 15.46 11.65 13.96C11.65 12.46 10.43 11.23 8.92 11.23Z" fill="url(#paint2_linear_5808_81819)"/>
<defs>
<linearGradient id="paint0_linear_5808_81819" x1="8.1222" y1="4.29167" x2="20.1034" y2="21.3694" gradientUnits="userSpaceOnUse">
<stop stop-color="#F86FD7"/>
<stop offset="1" stop-color="#6C62E5"/>
</linearGradient>
<linearGradient id="paint1_linear_5808_81819" x1="14.8828" y1="7.95444" x2="18.1471" y2="12.6096" gradientUnits="userSpaceOnUse">
<stop stop-color="#F86FD7"/>
<stop offset="1" stop-color="#6C62E5"/>
</linearGradient>
<linearGradient id="paint2_linear_5808_81819" x1="7.73281" y1="11.8545" x2="10.9971" y2="16.5097" gradientUnits="userSpaceOnUse">
<stop stop-color="#F86FD7"/>
<stop offset="1" stop-color="#6C62E5"/>
</linearGradient>
</defs>
</svg>
