<svg width="16" height="17" viewBox="0 0 16 17" fill="none" xmlns="http://www.w3.org/2000/svg">
<path d="M8 12.0666C8.60015 12.0666 9.08666 11.5801 9.08666 10.98C9.08666 10.3798 8.60015 9.89331 8 9.89331C7.39985 9.89331 6.91333 10.3798 6.91333 10.98C6.91333 11.5801 7.39985 12.0666 8 12.0666Z" fill="white"/>
<path d="M12.1866 6.85337V6.02004C12.1866 4.22004 11.7533 1.83337 7.99992 1.83337C4.24659 1.83337 3.81325 4.22004 3.81325 6.02004V6.85337C1.94659 7.08671 1.33325 8.03337 1.33325 10.36V11.6C1.33325 14.3334 2.16659 15.1667 4.89992 15.1667H11.0999C13.8333 15.1667 14.6666 14.3334 14.6666 11.6V10.36C14.6666 8.03337 14.0533 7.08671 12.1866 6.85337ZM7.99992 12.9934C6.88659 12.9934 5.98659 12.0867 5.98659 10.98C5.98659 9.86671 6.89325 8.96671 7.99992 8.96671C9.10659 8.96671 10.0133 9.87337 10.0133 10.98C10.0133 12.0934 9.11325 12.9934 7.99992 12.9934ZM4.89992 6.79337C4.84659 6.79337 4.79992 6.79337 4.74659 6.79337V6.02004C4.74659 4.06671 5.29992 2.76671 7.99992 2.76671C10.6999 2.76671 11.2533 4.06671 11.2533 6.02004V6.80004C11.1999 6.80004 11.1533 6.80004 11.0999 6.80004L4.89992 6.80004V6.79337Z" fill="white"/>
</svg>
