<svg width="25" height="24" viewBox="0 0 25 24" fill="none" xmlns="http://www.w3.org/2000/svg">
<path d="M15.39 3.45H9.61C9.21 3.45 8.89 3.13 8.89 2.73C8.89 2.33 9.21 2 9.61 2H15.39C15.79 2 16.11 2.32 16.11 2.72C16.11 3.12 15.79 3.45 15.39 3.45Z" fill="#F1E9F7"/>
<path d="M15.39 3.45H9.61C9.21 3.45 8.89 3.13 8.89 2.73C8.89 2.33 9.21 2 9.61 2H15.39C15.79 2 16.11 2.32 16.11 2.72C16.11 3.12 15.79 3.45 15.39 3.45Z" fill="#020725" fill-opacity="0.45"/>
<path d="M15.5 19.97V17.03C15.5 15.76 16.26 15 17.53 15H20.47C20.66 15 20.83 15.02 21 15.06C21.11 14.5 21.17 13.92 21.17 13.33C21.17 8.55003 17.28 4.66003 12.5 4.66003C7.72 4.66003 3.83 8.55003 3.83 13.33C3.83 18.11 7.72 22 12.5 22C13.71 22 14.86 21.75 15.91 21.3C15.65 20.96 15.5 20.52 15.5 19.97Z" fill="#020725" fill-opacity="0.85"/>
<path d="M20.47 15H17.53C16.26 15 15.5 15.76 15.5 17.03V19.97C15.5 21.24 16.26 22 17.53 22H20.47C21.74 22 22.5 21.24 22.5 19.97V17.03C22.5 15.76 21.74 15 20.47 15ZM20.19 19.46L19.01 20.14C18.77 20.28 18.53 20.35 18.31 20.35C18.14 20.35 17.99 20.31 17.85 20.23C17.53 20.04 17.35 19.67 17.35 19.18V17.82C17.35 17.33 17.53 16.96 17.85 16.77C18.17 16.58 18.58 16.62 19.01 16.86L20.19 17.54C20.61 17.79 20.85 18.13 20.85 18.5C20.85 18.87 20.62 19.21 20.19 19.46Z" fill="#020725"/>
<path d="M20.47 15H17.53C16.26 15 15.5 15.76 15.5 17.03V19.97C15.5 21.24 16.26 22 17.53 22H20.47C21.74 22 22.5 21.24 22.5 19.97V17.03C22.5 15.76 21.74 15 20.47 15ZM20.19 19.46L19.01 20.14C18.77 20.28 18.53 20.35 18.31 20.35C18.14 20.35 17.99 20.31 17.85 20.23C17.53 20.04 17.35 19.67 17.35 19.18V17.82C17.35 17.33 17.53 16.96 17.85 16.77C18.17 16.58 18.58 16.62 19.01 16.86L20.19 17.54C20.61 17.79 20.85 18.13 20.85 18.5C20.85 18.87 20.62 19.21 20.19 19.46Z" fill="white" fill-opacity="0.45"/>
<path d="M12.5 13.75C12.09 13.75 11.75 13.41 11.75 13V8C11.75 7.59 12.09 7.25 12.5 7.25C12.91 7.25 13.25 7.59 13.25 8V13C13.25 13.41 12.91 13.75 12.5 13.75Z" fill="#020725"/>
<path d="M12.5 13.75C12.09 13.75 11.75 13.41 11.75 13V8C11.75 7.59 12.09 7.25 12.5 7.25C12.91 7.25 13.25 7.59 13.25 8V13C13.25 13.41 12.91 13.75 12.5 13.75Z" fill="white" fill-opacity="0.45"/>
</svg>
