<svg width="25" height="24" viewBox="0 0 25 24" fill="none" xmlns="http://www.w3.org/2000/svg">
<path d="M19.5 9C19.5 10.45 19.07 11.78 18.33 12.89C17.25 14.49 15.54 15.62 13.55 15.91C13.21 15.97 12.86 16 12.5 16C12.14 16 11.79 15.97 11.45 15.91C9.46 15.62 7.75 14.49 6.67 12.89C5.93 11.78 5.5 10.45 5.5 9C5.5 5.13 8.63 2 12.5 2C16.37 2 19.5 5.13 19.5 9Z" fill="#020725" fill-opacity="0.85"/>
<path d="M21.75 18.47L20.1 18.86C19.73 18.95 19.44 19.23 19.36 19.6L19.01 21.07C18.82 21.87 17.8 22.11 17.27 21.48L12.5 16L7.73 21.49C7.2 22.12 6.18 21.88 5.99 21.08L5.64 19.61C5.55 19.24 5.26 18.95 4.9 18.87L3.25 18.48C2.49 18.3 2.22 17.35 2.77 16.8L6.67 12.9C7.75 14.5 9.46 15.63 11.45 15.92C11.79 15.98 12.14 16.01 12.5 16.01C12.86 16.01 13.21 15.98 13.55 15.92C15.54 15.63 17.25 14.5 18.33 12.9L22.23 16.8C22.78 17.34 22.51 18.29 21.75 18.47Z" fill="#020725"/>
<path d="M21.75 18.47L20.1 18.86C19.73 18.95 19.44 19.23 19.36 19.6L19.01 21.07C18.82 21.87 17.8 22.11 17.27 21.48L12.5 16L7.73 21.49C7.2 22.12 6.18 21.88 5.99 21.08L5.64 19.61C5.55 19.24 5.26 18.95 4.9 18.87L3.25 18.48C2.49 18.3 2.22 17.35 2.77 16.8L6.67 12.9C7.75 14.5 9.46 15.63 11.45 15.92C11.79 15.98 12.14 16.01 12.5 16.01C12.86 16.01 13.21 15.98 13.55 15.92C15.54 15.63 17.25 14.5 18.33 12.9L22.23 16.8C22.78 17.34 22.51 18.29 21.75 18.47Z" fill="white" fill-opacity="0.45"/>
<path d="M13.08 5.98L13.67 7.15999C13.75 7.31999 13.96 7.48 14.15 7.51L15.22 7.68999C15.9 7.79999 16.06 8.3 15.57 8.79L14.74 9.61998C14.6 9.75998 14.52 10.03 14.57 10.23L14.81 11.26C15 12.07 14.57 12.39 13.85 11.96L12.85 11.37C12.67 11.26 12.37 11.26 12.19 11.37L11.19 11.96C10.47 12.38 10.04 12.07 10.23 11.26L10.47 10.23C10.51 10.04 10.44 9.75998 10.3 9.61998L9.47 8.79C8.98 8.3 9.14 7.80999 9.82 7.68999L10.89 7.51C11.07 7.48 11.28 7.31999 11.36 7.15999L11.95 5.98C12.24 5.34 12.76 5.34 13.08 5.98Z" fill="#020725"/>
<path d="M13.08 5.98L13.67 7.15999C13.75 7.31999 13.96 7.48 14.15 7.51L15.22 7.68999C15.9 7.79999 16.06 8.3 15.57 8.79L14.74 9.61998C14.6 9.75998 14.52 10.03 14.57 10.23L14.81 11.26C15 12.07 14.57 12.39 13.85 11.96L12.85 11.37C12.67 11.26 12.37 11.26 12.19 11.37L11.19 11.96C10.47 12.38 10.04 12.07 10.23 11.26L10.47 10.23C10.51 10.04 10.44 9.75998 10.3 9.61998L9.47 8.79C8.98 8.3 9.14 7.80999 9.82 7.68999L10.89 7.51C11.07 7.48 11.28 7.31999 11.36 7.15999L11.95 5.98C12.24 5.34 12.76 5.34 13.08 5.98Z" fill="white" fill-opacity="0.45"/>
</svg>
