<svg width="25" height="24" viewBox="0 0 25 24" fill="none" xmlns="http://www.w3.org/2000/svg">
<path d="M16.69 2H8.31C4.67 2 2.5 4.17 2.5 7.81V16.18C2.5 19.83 4.67 22 8.31 22H16.68C20.32 22 22.49 19.83 22.49 16.19V7.81C22.5 4.17 20.33 2 16.69 2Z" fill="#020725" fill-opacity="0.85"/>
<path d="M16.0801 19.2501C15.6701 19.2501 15.3301 18.9101 15.3301 18.5001V14.6001C15.3301 14.1901 15.6701 13.8501 16.0801 13.8501C16.4901 13.8501 16.8301 14.1901 16.8301 14.6001V18.5001C16.8301 18.9101 16.4901 19.2501 16.0801 19.2501Z" fill="#020725"/>
<path d="M16.0801 19.2501C15.6701 19.2501 15.3301 18.9101 15.3301 18.5001V14.6001C15.3301 14.1901 15.6701 13.8501 16.0801 13.8501C16.4901 13.8501 16.8301 14.1901 16.8301 14.6001V18.5001C16.8301 18.9101 16.4901 19.2501 16.0801 19.2501Z" fill="white" fill-opacity="0.45"/>
<path d="M16.0801 8.2C15.6701 8.2 15.3301 7.86 15.3301 7.45V5.5C15.3301 5.09 15.6701 4.75 16.0801 4.75C16.4901 4.75 16.8301 5.09 16.8301 5.5V7.45C16.8301 7.86 16.4901 8.2 16.0801 8.2Z" fill="#020725"/>
<path d="M16.0801 8.2C15.6701 8.2 15.3301 7.86 15.3301 7.45V5.5C15.3301 5.09 15.6701 4.75 16.0801 4.75C16.4901 4.75 16.8301 5.09 16.8301 5.5V7.45C16.8301 7.86 16.4901 8.2 16.0801 8.2Z" fill="white" fill-opacity="0.45"/>
<path d="M8.91992 19.25C8.50992 19.25 8.16992 18.91 8.16992 18.5V16.55C8.16992 16.14 8.50992 15.8 8.91992 15.8C9.32992 15.8 9.66992 16.14 9.66992 16.55V18.5C9.66992 18.91 9.33992 19.25 8.91992 19.25Z" fill="#020725"/>
<path d="M8.91992 19.25C8.50992 19.25 8.16992 18.91 8.16992 18.5V16.55C8.16992 16.14 8.50992 15.8 8.91992 15.8C9.32992 15.8 9.66992 16.14 9.66992 16.55V18.5C9.66992 18.91 9.33992 19.25 8.91992 19.25Z" fill="white" fill-opacity="0.45"/>
<path d="M8.91992 10.15C8.50992 10.15 8.16992 9.81 8.16992 9.4V5.5C8.16992 5.09 8.50992 4.75 8.91992 4.75C9.32992 4.75 9.66992 5.09 9.66992 5.5V9.4C9.66992 9.81 9.33992 10.15 8.91992 10.15Z" fill="#020725"/>
<path d="M8.91992 10.15C8.50992 10.15 8.16992 9.81 8.16992 9.4V5.5C8.16992 5.09 8.50992 4.75 8.91992 4.75C9.32992 4.75 9.66992 5.09 9.66992 5.5V9.4C9.66992 9.81 9.33992 10.15 8.91992 10.15Z" fill="white" fill-opacity="0.45"/>
<path d="M16.0801 7.33008C14.5801 7.33008 13.3501 8.55008 13.3501 10.0501C13.3501 11.5501 14.5701 12.7801 16.0801 12.7801C17.5801 12.7801 18.8001 11.5601 18.8001 10.0501C18.8001 8.54008 17.5801 7.33008 16.0801 7.33008Z" fill="#020725"/>
<path d="M16.0801 7.33008C14.5801 7.33008 13.3501 8.55008 13.3501 10.0501C13.3501 11.5501 14.5701 12.7801 16.0801 12.7801C17.5801 12.7801 18.8001 11.5601 18.8001 10.0501C18.8001 8.54008 17.5801 7.33008 16.0801 7.33008Z" fill="white" fill-opacity="0.45"/>
<path d="M8.9202 11.23C7.4202 11.23 6.2002 12.45 6.2002 13.96C6.2002 15.47 7.4202 16.68 8.9202 16.68C10.4202 16.68 11.6502 15.46 11.6502 13.96C11.6502 12.46 10.4302 11.23 8.9202 11.23Z" fill="#020725"/>
<path d="M8.9202 11.23C7.4202 11.23 6.2002 12.45 6.2002 13.96C6.2002 15.47 7.4202 16.68 8.9202 16.68C10.4202 16.68 11.6502 15.46 11.6502 13.96C11.6502 12.46 10.4302 11.23 8.9202 11.23Z" fill="white" fill-opacity="0.45"/>
</svg>
