<svg width="25" height="24" viewBox="0 0 25 24" fill="none" xmlns="http://www.w3.org/2000/svg">
<path d="M20.54 6.82006L14.78 2.79006C13.21 1.69006 10.8 1.75006 9.29001 2.92006L4.28001 6.83006C3.28001 7.61006 2.49001 9.21006 2.49001 10.4701V17.3701C2.49001 19.9201 4.56001 22.0001 7.11001 22.0001H17.89C20.44 22.0001 22.51 19.9301 22.51 17.3801V10.6001C22.51 9.25006 21.64 7.59006 20.54 6.82006Z" fill="#020725" fill-opacity="0.85"/>
<path d="M6.5 11.86V16.15" stroke="#020725" stroke-width="1.5" stroke-linecap="round" stroke-linejoin="round"/>
<path d="M6.5 11.86V16.15" stroke="white" stroke-opacity="0.45" stroke-width="1.5" stroke-linecap="round" stroke-linejoin="round"/>
<path d="M9.5 10.4299V17.5699" stroke="#020725" stroke-width="1.5" stroke-linecap="round" stroke-linejoin="round"/>
<path d="M9.5 10.4299V17.5699" stroke="white" stroke-opacity="0.45" stroke-width="1.5" stroke-linecap="round" stroke-linejoin="round"/>
<path d="M12.5 9V19" stroke="#020725" stroke-width="1.5" stroke-linecap="round" stroke-linejoin="round"/>
<path d="M12.5 9V19" stroke="white" stroke-opacity="0.45" stroke-width="1.5" stroke-linecap="round" stroke-linejoin="round"/>
<path d="M15.5 10.4299V17.5699" stroke="#020725" stroke-width="1.5" stroke-linecap="round" stroke-linejoin="round"/>
<path d="M15.5 10.4299V17.5699" stroke="white" stroke-opacity="0.45" stroke-width="1.5" stroke-linecap="round" stroke-linejoin="round"/>
<path d="M18.5 11.86V16.15" stroke="#020725" stroke-width="1.5" stroke-linecap="round" stroke-linejoin="round"/>
<path d="M18.5 11.86V16.15" stroke="white" stroke-opacity="0.45" stroke-width="1.5" stroke-linecap="round" stroke-linejoin="round"/>
</svg>
